<svg width="18" height="18" viewBox="0 0 18 18" fill="none" xmlns="http://www.w3.org/2000/svg">
<rect width="18" height="18" fill="#E5E5E5"/>
<g id="Home One page- Light" clip-path="url(#clip0_0_1)">
<rect width="1440" height="8063" transform="translate(-1377 -303)" fill="#F0F0F6"/>
<g id="Right Menu">
<g id="Rectangle 25" filter="url(#filter0_d_0_1)">
<rect x="-45" y="-303" width="108" height="1315" fill="#FAFAFA"/>
</g>
<g id="Menu">
<g id="Home">
<g id="Home_2">
<circle id="Ellipse 10" cx="9" cy="9" r="20" fill="#FFB400"/>
<g id="Icons/Home">
<g id="Icons/Home_2">
<g id="Icons/Home_3">
<g id="Icons/Home_4" clip-path="url(#clip1_0_1)">
<path id="Vector" d="M15 14.9999C15 15.1989 14.921 15.3896 14.7803 15.5303C14.6397 15.6709 14.4489 15.7499 14.25 15.7499H3.75C3.55109 15.7499 3.36032 15.6709 3.21967 15.5303C3.07902 15.3896 3 15.1989 3 14.9999V8.24994H0.75L8.49525 1.20894C8.63333 1.0833 8.81331 1.01367 9 1.01367C9.18669 1.01367 9.36667 1.0833 9.50475 1.20894L17.25 8.24994H15V14.9999Z" fill="#2B2B2B"/>
</g>
</g>
</g>
</g>
</g>
</g>
</g>
</g>
</g>
<defs>
<filter id="filter0_d_0_1" x="-51" y="-313" width="128" height="1335" filterUnits="userSpaceOnUse" color-interpolation-filters="sRGB">
<feFlood flood-opacity="0" result="BackgroundImageFix"/>
<feColorMatrix in="SourceAlpha" type="matrix" values="0 0 0 0 0 0 0 0 0 0 0 0 0 0 0 0 0 0 127 0" result="hardAlpha"/>
<feOffset dx="4"/>
<feGaussianBlur stdDeviation="5"/>
<feColorMatrix type="matrix" values="0 0 0 0 0.184314 0 0 0 0 0.478431 0 0 0 0 0.976471 0 0 0 0.1 0"/>
<feBlend mode="normal" in2="BackgroundImageFix" result="effect1_dropShadow_0_1"/>
<feBlend mode="normal" in="SourceGraphic" in2="effect1_dropShadow_0_1" result="shape"/>
</filter>
<clipPath id="clip0_0_1">
<rect width="1440" height="8063" fill="white" transform="translate(-1377 -303)"/>
</clipPath>
<clipPath id="clip1_0_1">
<rect width="18" height="18" fill="white"/>
</clipPath>
</defs>
</svg>
